<?xml version="1.0" encoding="UTF-8" standalone="no"?>
<!-- Created with Inkscape (http://www.inkscape.org/) -->

<svg
   width="48"
   height="48"
   viewBox="0 0 48 48"
   version="1.1"
   id="svg1"
   xmlns="http://www.w3.org/2000/svg"
   xmlns:svg="http://www.w3.org/2000/svg">
  <defs
     id="defs1" />
  <g
     id="layer1">
    <g
       id="g9"
       transform="translate(-2,2)">
      <path
         style="fill:#afeeee;fill-opacity:1;stroke:#000000;stroke-width:2;stroke-linecap:round;stroke-linejoin:round;stroke-dasharray:none;stroke-opacity:1"
         d="m 14,9 8,18 h 8 L 38,9 Z"
         id="path2" />
      <path
         style="fill:none;stroke:#000000;stroke-width:2;stroke-linecap:round;stroke-linejoin:round;stroke-dasharray:none;stroke-opacity:1"
         d="m 36.344065,13.186808 c 1.5,-1.498187 3.885312,-0.415543 3.885312,1.271568 0,2.90493 -7,6 -7,6"
         id="path3-2" />
      <path
         style="fill:none;stroke:#000000;stroke-width:1;stroke-linecap:round;stroke-linejoin:round;stroke-dasharray:none;stroke-opacity:1"
         d="M 34.683843,9.953125 C 30.973022,14.283944 29.433762,24.689532 28.37701,26.519688"
         id="path4" />
      <path
         style="fill:none;stroke:#000000;stroke-linecap:round;stroke-linejoin:round;stroke-opacity:1"
         d="M 29.734375,9.71875 C 26,12.25 26.48169,24.15625 25.71875,26.329528"
         id="path5" />
      <path
         style="fill:none;stroke:#000000;stroke-linecap:round;stroke-linejoin:round;stroke-opacity:1"
         d="M 24.21875,9.671875 C 21.5,14 23.604426,23.1875 23,26.438903"
         id="path6" />
      <path
         style="fill:none;stroke:#000000;stroke-linecap:round;stroke-linejoin:round;stroke-opacity:1"
         d="M 18.656115,9.671875 C 18,12 19.34176,18.348476 19.765625,20.84375"
         id="path7" />
      <path
         style="fill:none;fill-opacity:1;stroke:#000000;stroke-width:1;stroke-linecap:round;stroke-linejoin:round;stroke-dasharray:none;stroke-opacity:1"
         d="M 32.354377,9.65625 C 30.264335,11.894187 29.685618,14 29.390625,15"
         id="path21" />
      <path
         style="fill:none;fill-opacity:1;stroke:#000000;stroke-width:1;stroke-linecap:round;stroke-linejoin:round;stroke-dasharray:none;stroke-opacity:1"
         d="M 27.37701,9.03125 C 25.583843,11 25.154368,13.441406 25,14.515625"
         id="path21-9" />
      <path
         style="fill:none;fill-opacity:1;stroke:#000000;stroke-width:1;stroke-linecap:round;stroke-linejoin:round;stroke-dasharray:none;stroke-opacity:1"
         d="m 21.68951,9.453125 c -1.237903,1.883684 -1.153055,3.972656 -1.120002,5"
         id="path21-9-5" />
      <path
         style="fill:none;fill-opacity:1;stroke:#000000;stroke-width:1;stroke-linecap:round;stroke-linejoin:round;stroke-dasharray:none;stroke-opacity:1"
         d="M 16.825626,9.453125 C 16.454334,12 18.033785,16.757812 18.332542,17.398437"
         id="path21-9-5-6" />
    </g>
    <path
       style="fill:#daa520;fill-opacity:1;stroke:#000000;stroke-width:1;stroke-linecap:round;stroke-linejoin:round;stroke-dasharray:none;stroke-opacity:1"
       d="m 14,10.484375 -1,-2 h 22 l -1,2 z"
       id="path20-9" />
    <rect
       style="fill:#000000;fill-opacity:1;stroke:none;stroke-width:2;stroke-linecap:round;stroke-linejoin:round;stroke-dasharray:none;stroke-opacity:1"
       id="rect10"
       width="26"
       height="2"
       x="11"
       y="27.990952"
       ry="1"
       rx="1" />
    <path
       style="fill:none;stroke:#000000;stroke-width:2;stroke-linecap:round;stroke-linejoin:round;stroke-dasharray:none;stroke-opacity:1"
       d="m 33.049596,32.585797 c 1.5,-2.163889 3.900805,-0.960096 3.900805,0.727015 0,2.90493 -3.900805,7.954503 -3.900805,7.954503"
       id="path3-7-0" />
    <path
       style="fill:#cd853f;fill-opacity:1;stroke:#000000;stroke-width:2;stroke-linecap:round;stroke-linejoin:round;stroke-dasharray:none;stroke-opacity:1"
       d="m 15,29 v 13 c 0,2 1,3 3,3 h 12 c 2,0 3,-1 3,-3 V 29 Z"
       id="path9-8-6" />
    <rect
       style="fill:#afeeee;fill-opacity:1;stroke:none;stroke-width:0;stroke-linecap:round;stroke-linejoin:round;stroke-dasharray:none;stroke-opacity:1"
       id="rect21-3-8"
       width="16"
       height="8"
       x="16"
       y="30" />
    <path
       style="fill:none;fill-opacity:1;stroke:#000000;stroke-width:1;stroke-linecap:round;stroke-linejoin:round;stroke-dasharray:none;stroke-opacity:1"
       d="m 29.530426,31.510493 c 0,1 0,3 0,3"
       id="path36-1" />
  </g>
</svg>
